<svg width="32" height="32" viewBox="0 0 32 32" fill="none" xmlns="http://www.w3.org/2000/svg">
<path d="M15.4248 5.6473C15.4704 5.53195 15.5497 5.43298 15.6522 5.36323C15.7548 5.29349 15.876 5.2562 16 5.2562C16.124 5.2562 16.2452 5.29349 16.3478 5.36323C16.4503 5.43298 16.5296 5.53195 16.5752 5.6473L24.9689 25.5271C25.0198 25.648 25.0313 25.782 25.0018 25.9099C24.9723 26.0378 24.9033 26.1532 24.8045 26.2396C24.7058 26.3261 24.5823 26.3792 24.4516 26.3915C24.3209 26.4038 24.1896 26.3746 24.0765 26.3081L17.2697 22.2933C16.8853 22.0662 16.4472 21.9461 16.0008 21.9457C15.5544 21.9452 15.116 22.0643 14.7312 22.2906L7.92352 26.3081C7.81035 26.3746 7.67911 26.4038 7.54842 26.3915C7.41774 26.3792 7.29424 26.3261 7.19547 26.2396C7.09669 26.1532 7.02765 26.0378 6.99816 25.9099C6.96866 25.782 6.9802 25.648 7.03114 25.527L15.4248 5.6473Z" fill="#F35540"/>
</svg>
