<svg width="32" height="32" viewBox="0 0 32 32" fill="none" xmlns="http://www.w3.org/2000/svg">
<path d="M13.4751 26.4251C13.521 26.5965 13.5274 26.7754 13.4945 26.9444L12.9593 29.6966L11.1197 27.5807C11.0067 27.4508 10.9229 27.2927 10.8769 27.1213L4.67215 3.9647C4.52921 3.43124 4.84579 2.8829 5.37926 2.73996C5.60135 2.68045 5.82344 2.62094 6.04554 2.56143C6.579 2.41849 7.12734 2.73507 7.27028 3.26854L13.4751 26.4251Z" fill="#9EA4BD"/>
<path d="M27.0626 5.95501C27.0626 5.95501 22.5626 14.4552 17.5626 13.4552C13.9057 12.7238 12.0626 18.4552 12.0626 18.4552L8.06262 3.45515C8.06262 3.45515 13.48 1.40014 16.5626 3.45522C19.5626 5.45522 27.0626 5.95501 27.0626 5.95501Z" fill="#E9BD0C"/>
</svg>
