<svg width="796" height="196" viewBox="0 0 796 196" fill="none" xmlns="http://www.w3.org/2000/svg">
<g clip-path="url(#clip0_43_2)">
<g filter="url(#filter0_d_43_2)">
<path fill-rule="evenodd" clip-rule="evenodd" d="M21.1981 21.1923C48.0928 -5.69638 90.8884 -6.99796 119.323 17.2871L118.149 18.364C116.642 19.746 117.51 22.3085 119.601 22.4174L123.451 22.618L125.879 25.9345C126.577 26.8873 127.665 27.0786 128.56 26.7451C148.989 51.8628 150.366 87.9504 131.059 114.698L72.3727 196C61.6112 181.091 36.2283 162.024 59.6375 152.943C72.2878 148.035 82.5189 141.529 92.7797 132.881C106.78 121.081 113.784 110.854 118.597 101.559C123.39 92.7795 126.494 79.3753 126.666 69.0373C126.752 63.9102 126.454 60.7214 126.114 58.7736C125.944 57.7977 125.761 57.1207 125.604 56.6601C125.509 56.3807 125.408 56.0709 125.238 55.8228C125.235 55.8225 125.185 55.8509 123.8 56.7033L125.236 55.8199C124.859 55.2065 124.133 54.9005 123.43 55.0587C122.749 55.212 122.235 55.7679 122.133 56.4534C121.963 57.7777 121.81 59.1039 121.618 60.4258C121.294 62.663 120.841 65.3685 120.313 67.4065C119.551 70.3481 118.816 73.0762 117.959 75.7162C119.324 62.2598 114.536 49.9976 104.564 40.0281C86.7856 22.2532 57.9602 22.2532 40.1813 40.0281C27.5518 52.6549 23.894 70.8551 29.2079 86.7102C44.0453 71.8761 60.2316 46.5912 61.2446 46.589C62.1123 46.5894 65.6429 48.5656 68.8322 46.588C69.4699 46.1926 70.0854 45.4093 70.3497 45.409C70.6141 45.4095 71.2398 46.1766 71.8672 46.588C75.6763 49.0855 82.6338 47.4321 83.5016 47.4319C84.4811 47.4359 99.6147 70.2361 114.015 85.1584C112.712 87.3219 111.429 89.1429 109.627 91.5931C100.933 103.413 92.1009 111.06 82.4899 117.577C69.6595 126.278 55.8674 131.932 39.1525 134.989C28.9492 136.385 27.6686 134.068 27.6686 134.068L13.6869 114.698C-7.09422 85.9081 -3.91227 46.2972 21.1981 21.1923ZM70.3497 47.9376C70.3318 47.9479 68.0771 49.2394 66.4716 49.4548C64.6375 49.7008 61.7869 48.7922 61.7504 48.7805L51.8022 62.6038C51.8182 62.5975 54.1243 61.6858 55.5117 60.918C56.9594 60.1168 59.0347 58.5712 59.0526 58.5579C59.0674 58.5904 59.9065 60.4259 60.7387 61.3951C61.4706 62.2472 62.9176 63.2689 62.9307 63.2781C62.9486 63.2717 65.1598 62.4848 66.4716 61.7609C67.8726 60.9877 69.8262 59.415 69.8439 59.4008C69.8678 59.4285 71.2536 61.0257 72.3731 61.7609C73.4523 62.4695 75.3905 63.1037 75.4081 63.1095C75.4272 63.1067 76.7831 62.9093 77.6001 62.6038C78.511 62.2631 79.7791 61.4039 79.7921 61.3951C79.8167 61.4181 81.3639 62.8641 82.4899 63.6152C83.661 64.3963 85.6763 65.2933 85.6936 65.301C85.6999 65.2973 86.9821 64.5501 87.7169 63.9524C88.5062 63.3104 89.5576 62.1141 89.5717 62.098C89.5984 62.1178 91.0729 63.2122 92.1009 63.7838C93.1391 64.3609 94.8668 65.0417 94.883 65.0481L82.8271 49.4548C82.8015 49.4601 78.903 50.2647 76.4198 49.9605C73.9541 49.6584 70.3913 47.9575 70.3497 47.9376ZM120.384 29.3136C119.026 27.3087 115.908 28.2632 115.843 30.6615L115.698 35.9911L111.747 39.0864C110.028 40.4341 110.743 43.2337 112.957 43.5221L117.905 44.1657L120.7 48.6771C122.022 50.8096 125.238 49.8632 125.304 47.427L125.449 42.0971L129.399 39.0018C131.092 37.6752 130.426 34.9421 128.293 34.5819L123.241 33.9221L120.384 29.3136Z" fill="white"/>
<path d="M124.128 57.5883C124.515 58.955 125.095 62.1717 124.981 69.0094C124.9 73.9075 124.225 79.2405 122.957 84.4532C121.64 89.8666 119.71 95.2037 116.888 100.027C114.256 104.527 111.401 108.889 108.152 112.97C105.396 116.431 102.389 119.686 99.2017 122.754C91.0648 130.584 81.8825 137.472 71.9824 142.933C67.551 145.378 62.9487 147.522 58.1949 149.262C54.5551 150.595 50.8254 151.69 47.0328 152.492C45.1519 152.891 43.2555 153.217 41.349 153.466C21.9585 155.995 9.81822 146.049 6.78316 136.103C3.75377 126.175 12.1476 118.263 12.1788 118.234C12.1519 118.264 5.44609 125.834 11.3357 132.9C15.8005 138.256 23.4701 140.033 31.7436 139.712C34.4058 139.609 37.1306 139.289 39.8312 138.8C55.8966 135.892 70.9344 129.581 84.1433 119.976L84.6828 119.582C94.398 112.44 103.164 103.777 110.317 94.0703C112.119 91.6247 113.801 89.0919 115.252 86.4205C119.222 79.1119 121.65 70.8478 122.981 62.6598C123.491 59.53 123.798 56.7274 123.801 56.7033C123.946 56.9834 124.042 57.2857 124.128 57.5883Z" fill="white"/>
<path d="M118.365 29.9188C118.611 29.9255 118.857 30.0442 119.014 30.2988L122.03 35.1671C122.156 35.3691 122.371 35.5091 122.607 35.5398L127.973 36.2381C128.68 36.3302 128.923 37.2341 128.36 37.6753L124.086 41.0244C123.898 41.1716 123.782 41.4019 123.776 41.6408L123.62 47.3813C123.609 47.7715 123.328 48.0905 122.949 48.157C122.626 48.2135 122.308 48.069 122.134 47.7895L119.118 42.9216C118.991 42.7168 118.78 42.5799 118.542 42.5488L113.176 41.8502C112.977 41.8243 112.815 41.7341 112.697 41.6082C112.37 41.2582 112.42 40.7023 112.788 40.4133L117.063 37.0642C117.25 36.9175 117.367 36.6855 117.373 36.4478L117.529 30.7074C117.541 30.2624 117.919 29.9064 118.365 29.9188Z" fill="white"/>
<path d="M122.486 11.5302C122.453 10.8871 123.272 10.5924 123.651 11.1104L126.372 14.8256C126.486 14.9819 126.665 15.0783 126.858 15.0884L131.203 15.3146C131.775 15.3444 132.026 16.0535 131.603 16.4423L128.384 19.3933C128.242 19.5243 128.164 19.7126 128.174 19.9066L128.406 24.5184C128.438 25.1615 127.62 25.4563 127.241 24.9382L124.52 21.223C124.406 21.0667 124.227 20.9703 124.034 20.9602L119.689 20.734C119.324 20.7149 119.047 20.386 119.08 20.0238C119.094 19.8738 119.16 19.7251 119.289 19.6064L122.508 16.6553C122.65 16.5243 122.728 16.336 122.718 16.142L122.486 11.5302Z" fill="white"/>
</g>
<path d="M195.306 137L231.53 47.016H245.738L281.834 137H263.274L235.37 63.144H241.77L213.482 137H195.306ZM214.506 120.232V105.64H262.89V120.232H214.506ZM333.27 137V101.544C333.27 97.8747 332.118 94.888 329.814 92.584C327.51 90.28 324.523 89.128 320.854 89.128C318.464 89.128 316.331 89.64 314.454 90.664C312.576 91.688 311.083 93.1387 309.974 95.016C308.95 96.8933 308.438 99.0693 308.438 101.544L301.91 98.216C301.91 93.352 302.934 89.128 304.982 85.544C307.115 81.8747 310.016 79.016 313.686 76.968C317.44 74.92 321.664 73.896 326.358 73.896C330.88 73.896 334.934 75.048 338.518 77.352C342.102 79.5707 344.918 82.5147 346.966 86.184C349.014 89.768 350.038 93.6507 350.038 97.832V137H333.27ZM291.67 137V75.176H308.438V137H291.67ZM363.545 137V75.176H380.441V137H363.545ZM371.993 65.192C369.262 65.192 367.001 64.296 365.209 62.504C363.417 60.6267 362.521 58.3227 362.521 55.592C362.521 52.9467 363.417 50.6853 365.209 48.808C367.001 46.9307 369.262 45.992 371.993 45.992C374.809 45.992 377.07 46.9307 378.777 48.808C380.569 50.6853 381.465 52.9467 381.465 55.592C381.465 58.3227 380.569 60.6267 378.777 62.504C377.07 64.296 374.809 65.192 371.993 65.192ZM415.391 137L388.127 75.176H406.559L426.143 126.12H417.055L436.767 75.176H454.559L427.423 137H415.391ZM489.476 138.28C483.246 138.28 477.614 136.872 472.58 134.056C467.63 131.155 463.662 127.272 460.676 122.408C457.774 117.459 456.324 111.955 456.324 105.896C456.324 99.8373 457.774 94.4187 460.676 89.64C463.577 84.776 467.545 80.936 472.58 78.12C477.614 75.2187 483.204 73.768 489.348 73.768C495.662 73.768 501.294 75.2187 506.244 78.12C511.278 80.936 515.246 84.776 518.148 89.64C521.049 94.4187 522.5 99.8373 522.5 105.896C522.5 111.955 521.049 117.459 518.148 122.408C515.246 127.272 511.278 131.155 506.244 134.056C501.294 136.872 495.705 138.28 489.476 138.28ZM489.348 122.664C492.505 122.664 495.278 121.981 497.668 120.616C500.142 119.165 502.02 117.203 503.3 114.728C504.665 112.168 505.348 109.267 505.348 106.024C505.348 102.781 504.665 99.9227 503.3 97.448C501.934 94.9733 500.057 93.0533 497.668 91.688C495.278 90.2373 492.505 89.512 489.348 89.512C486.276 89.512 483.545 90.2373 481.156 91.688C478.766 93.0533 476.889 94.9733 475.524 97.448C474.158 99.9227 473.476 102.781 473.476 106.024C473.476 109.267 474.158 112.168 475.524 114.728C476.889 117.203 478.766 119.165 481.156 120.616C483.545 121.981 486.276 122.664 489.348 122.664ZM550.876 137.512L525.02 75.176H543.196L560.348 122.792H554.204L571.996 75.176H590.3L562.78 137.512H550.876ZM533.724 162.856L552.54 123.048L562.78 137.512L551.516 162.856H533.724Z" fill="white"/>
</g>
<defs>
<filter id="filter0_d_43_2" x="-24" y="-24.0001" width="192.746" height="244" filterUnits="userSpaceOnUse" color-interpolation-filters="sRGB">
<feFlood flood-opacity="0" result="BackgroundImageFix"/>
<feColorMatrix in="SourceAlpha" type="matrix" values="0 0 0 0 0 0 0 0 0 0 0 0 0 0 0 0 0 0 127 0" result="hardAlpha"/>
<feOffset/>
<feGaussianBlur stdDeviation="12"/>
<feComposite in2="hardAlpha" operator="out"/>
<feColorMatrix type="matrix" values="0 0 0 0 0.740385 0 0 0 0 0.130848 0 0 0 0 0.0498336 0 0 0 0.2 0"/>
<feBlend mode="normal" in2="BackgroundImageFix" result="effect1_dropShadow_43_2"/>
<feBlend mode="normal" in="SourceGraphic" in2="effect1_dropShadow_43_2" result="shape"/>
</filter>
<clipPath id="clip0_43_2">
<rect width="796" height="196" fill="white"/>
</clipPath>
</defs>
</svg>
