<svg width="196" height="196" viewBox="0 0 196 196" fill="none" xmlns="http://www.w3.org/2000/svg">
<g clip-path="url(#clip0_31_14)">
<g filter="url(#filter0_d_31_14)">
<path fill-rule="evenodd" clip-rule="evenodd" d="M46.8251 21.1923C73.7198 -5.69638 116.515 -6.99796 144.95 17.2871L143.776 18.364C142.269 19.746 143.137 22.3085 145.228 22.4174L149.078 22.618L151.506 25.9345C152.204 26.8873 153.291 27.0786 154.187 26.7451C174.616 51.8628 175.993 87.9504 156.686 114.698L97.9997 196C87.2382 181.091 61.8553 162.024 85.2644 152.943C97.9147 148.035 108.146 141.529 118.407 132.881C132.407 121.081 139.411 110.854 144.224 101.559C149.017 92.7795 152.121 79.3753 152.293 69.0373C152.379 63.9102 152.081 60.7214 151.741 58.7736C151.571 57.7977 151.388 57.1207 151.231 56.6601C151.136 56.3807 151.035 56.0709 150.865 55.8228C150.862 55.8225 150.812 55.8509 149.427 56.7033L150.863 55.8199C150.485 55.2065 149.76 54.9005 149.057 55.0587C148.376 55.212 147.862 55.7679 147.76 56.4534C147.59 57.7777 147.437 59.1039 147.245 60.4258C146.921 62.663 146.468 65.3685 145.94 67.4065C145.178 70.3481 144.443 73.0762 143.586 75.7162C144.951 62.2598 140.163 49.9976 130.191 40.0281C112.413 22.2532 83.5871 22.2532 65.8083 40.0281C53.1787 52.6549 49.521 70.8551 54.8349 86.7102C69.6722 71.8761 85.8585 46.5912 86.8715 46.589C87.7392 46.5894 91.2698 48.5656 94.4591 46.588C95.0969 46.1926 95.7124 45.4093 95.9767 45.409C96.241 45.4095 96.8668 46.1766 97.4942 46.588C101.303 49.0855 108.261 47.4321 109.129 47.4319C110.108 47.4359 125.242 70.2361 139.642 85.1584C138.339 87.3219 137.056 89.1429 135.254 91.5931C126.56 103.413 117.728 111.06 108.117 117.577C95.2864 126.278 81.4943 131.932 64.7795 134.989C54.5761 136.385 53.2955 134.068 53.2955 134.068L39.3138 114.698C18.5327 85.9081 21.7147 46.2972 46.8251 21.1923ZM95.9767 47.9376C95.9588 47.9479 93.704 49.2394 92.0985 49.4548C90.2644 49.7008 87.4138 48.7922 87.3774 48.7805L77.4291 62.6038C77.4451 62.5975 79.7512 61.6858 81.1386 60.918C82.5864 60.1168 84.6617 58.5712 84.6795 58.5579C84.6944 58.5904 85.5334 60.4259 86.3657 61.3951C87.0976 62.2473 88.5446 63.2689 88.5577 63.2781C88.5755 63.2717 90.7868 62.4848 92.0985 61.7609C93.4995 60.9877 95.4532 59.415 95.4708 59.4008C95.4948 59.4285 96.8806 61.0257 98 61.7609C99.0793 62.4695 101.018 63.1037 101.035 63.1095C101.054 63.1067 102.41 62.9093 103.227 62.6038C104.138 62.2631 105.406 61.4039 105.419 61.3951C105.444 61.4181 106.991 62.8641 108.117 63.6152C109.288 64.3963 111.303 65.2933 111.321 65.301C111.327 65.2973 112.609 64.5501 113.344 63.9524C114.133 63.3104 115.185 62.1141 115.199 62.098C115.225 62.1178 116.7 63.2122 117.728 63.7838C118.766 64.3609 120.494 65.0417 120.51 65.0481L108.454 49.4548C108.428 49.4601 104.53 50.2647 102.047 49.9605C99.5811 49.6584 96.0183 47.9575 95.9767 47.9376ZM146.011 29.3136C144.653 27.3087 141.535 28.2632 141.47 30.6615L141.325 35.9911L137.374 39.0864C135.655 40.4341 136.37 43.2337 138.584 43.5221L143.532 44.1657L146.327 48.6771C147.649 50.8096 150.865 49.8632 150.931 47.427L151.076 42.0971L155.026 39.0018C156.719 37.6752 156.053 34.9421 153.92 34.5819L148.868 33.9221L146.011 29.3136Z" fill="url(#paint0_linear_31_14)"/>
<path d="M149.755 57.5883C150.142 58.955 150.722 62.1717 150.608 69.0094C150.527 73.9075 149.852 79.2405 148.584 84.4532C147.267 89.8666 145.337 95.2037 142.515 100.027C139.883 104.527 137.028 108.889 133.779 112.97C131.023 116.431 128.016 119.686 124.829 122.754C116.692 130.584 107.509 137.472 97.6093 142.933C93.178 145.378 88.5756 147.522 83.8219 149.263C80.1821 150.595 76.4523 151.69 72.6598 152.492C70.7788 152.891 68.8824 153.217 66.976 153.466C47.5854 155.995 35.4452 146.049 32.4101 136.103C29.3807 126.175 37.7746 118.263 37.8058 118.234C37.7788 118.264 31.073 125.834 36.9627 132.9C41.4274 138.256 49.0971 140.033 57.3706 139.712C60.0327 139.609 62.7576 139.289 65.4581 138.8C81.5236 135.892 96.5613 129.581 109.77 119.976L110.31 119.582C120.025 112.44 128.791 103.777 135.944 94.0703C137.746 91.6247 139.428 89.0919 140.879 86.4205C144.849 79.1119 147.277 70.8478 148.608 62.6598C149.117 59.53 149.425 56.7274 149.428 56.7033C149.573 56.9834 149.669 57.2857 149.755 57.5883Z" fill="url(#paint1_linear_31_14)"/>
<path d="M143.992 29.9188C144.238 29.9255 144.484 30.0442 144.641 30.2988L147.657 35.1671C147.783 35.3691 147.998 35.5091 148.234 35.5398L153.6 36.2381C154.307 36.3302 154.55 37.2341 153.987 37.6753L149.713 41.0244C149.525 41.1716 149.409 41.4019 149.403 41.6408L149.247 47.3813C149.236 47.7715 148.955 48.0905 148.576 48.157C148.253 48.2135 147.935 48.069 147.761 47.7895L144.745 42.9216C144.618 42.7168 144.407 42.5799 144.168 42.5489L138.803 41.8502C138.604 41.8243 138.442 41.7341 138.324 41.6082C137.997 41.2582 138.047 40.7023 138.415 40.4133L142.69 37.0642C142.877 36.9175 142.994 36.6855 143 36.4478L143.156 30.7074C143.168 30.2624 143.546 29.9064 143.992 29.9188Z" fill="url(#paint2_linear_31_14)"/>
<path d="M148.113 11.5302C148.08 10.8871 148.899 10.5924 149.278 11.1104L151.999 14.8256C152.113 14.9819 152.292 15.0783 152.485 15.0884L156.83 15.3146C157.402 15.3444 157.653 16.0535 157.229 16.4423L154.011 19.3933C153.868 19.5243 153.791 19.7126 153.801 19.9066L154.033 24.5184C154.065 25.1615 153.247 25.4563 152.868 24.9382L150.147 21.223C150.033 21.0667 149.854 20.9703 149.661 20.9602L145.316 20.734C144.951 20.7149 144.674 20.386 144.707 20.0238C144.72 19.8738 144.787 19.7251 144.916 19.6064L148.135 16.6553C148.277 16.5243 148.355 16.336 148.345 16.142L148.113 11.5302Z" fill="url(#paint3_linear_31_14)"/>
</g>
</g>
<defs>
<filter id="filter0_d_31_14" x="1.62695" y="-24.0001" width="192.746" height="244" filterUnits="userSpaceOnUse" color-interpolation-filters="sRGB">
<feFlood flood-opacity="0" result="BackgroundImageFix"/>
<feColorMatrix in="SourceAlpha" type="matrix" values="0 0 0 0 0 0 0 0 0 0 0 0 0 0 0 0 0 0 127 0" result="hardAlpha"/>
<feOffset/>
<feGaussianBlur stdDeviation="12"/>
<feComposite in2="hardAlpha" operator="out"/>
<feColorMatrix type="matrix" values="0 0 0 0 0.740385 0 0 0 0 0.130848 0 0 0 0 0.0498336 0 0 0 0.2 0"/>
<feBlend mode="normal" in2="BackgroundImageFix" result="effect1_dropShadow_31_14"/>
<feBlend mode="normal" in="SourceGraphic" in2="effect1_dropShadow_31_14" result="shape"/>
</filter>
<linearGradient id="paint0_linear_31_14" x1="97.9998" y1="-0.00012207" x2="97.9998" y2="196" gradientUnits="userSpaceOnUse">
<stop stop-color="#F35540"/>
<stop offset="1" stop-color="#91172B"/>
</linearGradient>
<linearGradient id="paint1_linear_31_14" x1="94.655" y1="-7.47783" x2="94.655" y2="196.434" gradientUnits="userSpaceOnUse">
<stop stop-color="#F35540"/>
<stop offset="1" stop-color="#91172B"/>
</linearGradient>
<linearGradient id="paint2_linear_31_14" x1="94.655" y1="-7.47783" x2="94.655" y2="196.434" gradientUnits="userSpaceOnUse">
<stop stop-color="#F35540"/>
<stop offset="1" stop-color="#91172B"/>
</linearGradient>
<linearGradient id="paint3_linear_31_14" x1="94.655" y1="-7.47783" x2="94.655" y2="196.434" gradientUnits="userSpaceOnUse">
<stop stop-color="#F35540"/>
<stop offset="1" stop-color="#91172B"/>
</linearGradient>
<clipPath id="clip0_31_14">
<rect width="196" height="196" fill="white"/>
</clipPath>
</defs>
</svg>
